# xmcd CD database file
#
# Track frame offsets:
#	150
#	15289
#	25496
#	35595
#	48587
#	56934
#	74471
#	82016
#	89056
#	99406
#	107859
#	119625
#	132393
#	145175
#	162245
#	176772
#	189524
#	201239
#	210204
#	220004
#	231643
#	244253
#
# Disc length: 3696 seconds
#
# Revision: 0
# Processed by: cddbd v1.5.2PL0 Copyright (c) Steve Scherf et al.
# Submitted via: CDex 1.70beta2
#
DISCID=500e6e16
DTITLE=Dawson, Dave - Cdn. - ON - Rockin' Chair Years
DYEAR=2004
DGENRE=Country
TTITLE0=Rockin' Chair Years
TTITLE1=Teardrops In Your Eyes
TTITLE2=Didn't Think That You Could Have the Blues
TTITLE3=Sunday Morn Waltz
TTITLE4=Nickles and Dimes
TTITLE5=I Know A Man
TTITLE6=The Night I Passed A Week
TTITLE7=Tony's Slot Machine
TTITLE8=Signs Along the Way
TTITLE9=Just You and Me
TTITLE10=The Battered Tin Cup and the Spring
TTITLE11=How Could You Know What I'm Feeling
TTITLE12=Missed His Calling
TTITLE13=Learning About Women
TTITLE14=Heaven's Bright Aisles
TTITLE15=Teh Storm
TTITLE16=When Johnny Played Fiddle
TTITLE17=The Night I Took the Bus
TTITLE18=The Burnt Out Sawmill At H'Don
TTITLE19=My Deep Brown Eyed Sue
TTITLE20=The Dying Brakemwn
TTITLE21=Everything's Alright
EXTD=YEAR: 2004
EXTT0=
EXTT1=
EXTT2=
EXTT3=
EXTT4=
EXTT5=
EXTT6=
EXTT7=
EXTT8=
EXTT9=
EXTT10=
EXTT11=
EXTT12=
EXTT13=
EXTT14=
EXTT15=
EXTT16=
EXTT17=
EXTT18=
EXTT19=
EXTT20=
EXTT21=
PLAYORDER=
